<?xml version="1.0" encoding="UTF-8"?>
<svg id="type-2" xmlns="http://www.w3.org/2000/svg" viewBox="0 0 720 222.11">
  <defs>
    <style>
      .cls-1 {
        fill: #00bafa;
      }

      .cls-2 {
        fill: #212529;
      }

      .cls-3 {
        fill: #e59e00;
      }
    </style>
  </defs>
  <g>
    <path class="cls-2" d="m346.46,103.66c0,1.1-.22,1.76-1.43,1.76h-28.31l-.55-.55c-.11-.33-.22-.77-.22-1.21v-.44c-.11-.66.11-1.21.44-1.75.33-.22.66-.33.99-.33h.44c1.54-.44,1.87-1.98,1.87-3.4,0-4.39-2.52-9.44-3.84-13.39l-26.34-.11c-1.32,4.39-3.84,10.1-3.84,14.93,0,.88.77,1.76,1.54,1.98,1.21-.33,1.76.55,1.76,1.65,0,1.21.22,2.63-1.43,2.63h-13.39c-.66-.33-.77-1.98-.77-2.63,0-.88.44-1.65,1.43-1.65h.44c2.74-1.1,5.16-2.96,6.37-5.71,1.65-3.95,18.66-55.64,18.66-55.97,0-.66-.33-1.32-.88-1.76h-.11c-1.87-1.21-2.63.55-2.63-2.96,0-.99.22-1.76,1.32-1.76h12.4c2.96,0,6.15,1.54,7.24,4.39,7.24,19.21,13.83,38.85,21.07,58.06.66,1.76,1.76,4.17,3.73,4.72,1.21.33,2.52.88,3.62,1.32.55.66.44,1.43.44,2.19h-.02Zm-31.61-22.39l-12.73-35.56-11.52,35.45,24.25.11Z"/>
    <path class="cls-2" d="m424.13,36.17c0,.77-.44,1.65-1.43,1.65h-.33c-3.4,2.3-5.93,5.92-5.93,10.2v56.08c0,1.21-1.43,1.32-2.3,1.32s-1.76-.55-2.41-1.21l-48.73-56.52v42.47c0,4.72,1.98,8.34,5.93,10.98,1.32-.33,1.87.99,1.87,2.08,0,.88-.11,2.2-1.32,2.2h-16.02c-1.21,0-1.32-1.32-1.32-2.2,0-.66.11-1.21.44-1.75.33-.22.66-.33.99-.33h.44c5.27-4.5,5.38-9.55,5.38-15.91v-33.36c0-5.38-.99-12.62-6.8-14.82-.88-.33-2.41-.88-2.41-1.97,0-1.21,1.65-1.54,2.52-1.54h21.95l38.19,43.13v-22.94c0-5.93-.33-12.07-5.49-15.91-1.1.22-1.76-.66-1.76-1.65,0-.88,0-2.63,1.21-2.63h16.13c1.32,0,1.21,1.76,1.21,2.63h-.01Z"/>
    <path class="cls-2" d="m490.17,51.2c.11.88-1.1,1.43-1.76,1.43s-1.21-.33-1.43-.99c-2.96-7.46-10.43-14.49-18.88-14.49v49.93c0,2.41.99,14.05,4.28,14.05.44,0,.88.11,1.32.33.22.44.44.88.44,1.43,0,.88,0,2.52-1.21,2.52h-28.75c-.77-.33-.77-1.54-.77-2.2s.11-1.21.44-1.75c.44-.22.88-.22,1.32-.33,3.29-.77,4.28-10.1,4.28-12.95v-51.03c-8.34,0-16.46,6.8-18.99,14.49-.22.66-.66.99-1.43.99-.55,0-1.65-.44-1.65-1.1,0-4.06,1.76-13.5,2.3-18h57.95l2.52,17.67h.02Z"/>
    <path class="cls-2" d="m552.84,103.66c0,1.1-.22,1.76-1.43,1.76h-28.31l-.55-.55c-.11-.33-.22-.77-.22-1.21v-.44c-.11-.66.11-1.21.44-1.75.33-.22.66-.33.99-.33h.44c1.54-.44,1.87-1.98,1.87-3.4,0-4.39-2.52-9.44-3.84-13.39l-26.34-.11c-1.32,4.39-3.84,10.1-3.84,14.93,0,.88.77,1.76,1.54,1.98,1.21-.33,1.76.55,1.76,1.65,0,1.21.22,2.63-1.43,2.63h-13.39c-.66-.33-.77-1.98-.77-2.63,0-.88.44-1.65,1.43-1.65h.44c2.74-1.1,5.16-2.96,6.37-5.71,1.65-3.95,18.66-55.64,18.66-55.97,0-.66-.33-1.32-.88-1.76h-.11c-1.87-1.21-2.63.55-2.63-2.96,0-.99.22-1.76,1.32-1.76h12.4c2.96,0,6.15,1.54,7.24,4.39,7.24,19.21,13.83,38.85,21.07,58.06.66,1.76,1.76,4.17,3.73,4.72,1.21.33,2.52.88,3.62,1.32.55.66.44,1.43.44,2.19h-.02Zm-31.61-22.39l-12.73-35.56-11.52,35.45,24.25.11Z"/>
    <path class="cls-2" d="m602.12,59.11c-.77-2.41-1.21-4.83-2.3-7.24-3.84-8.78-12.4-15.91-22.39-15.91-4.28,0-9.77,1.76-9.77,6.91,0,13.61,43.46,18.11,43.46,41.16,0,16.46-17.89,22.83-31.72,22.83-10.32,0-26.01-4.72-26.01-17.45,0-5.49,2.85-10.31,8.89-10.31,4.72,0,9.11,3.51,9.11,8.45,0,4.17-3.73,7.03-3.73,9.99,0,5.16,9.11,6.15,12.73,6.15,6.69,0,18.66-2.63,18.66-11.3,0-13.72-42.03-17.89-42.03-39.18,0-13.39,10.75-20.41,23.16-20.41,3.62,0,7.35.44,10.75,1.76,1.76.66,4.5,1.86,6.37,1.86,3.84,0,2.09-5.49,4.5-5.49.55,0,1.32.11,1.43.88l2.41,27.33c.11.88-.99,1.32-1.65,1.32-.88,0-1.65-.55-1.87-1.32v-.03Z"/>
    <path class="cls-2" d="m678.73,35.84c0,1.43-.66,2.08-2.09,2.08-5.49,2.52-8.67,10.75-10.98,16.02-3.29,7.35-6.69,14.59-9.99,21.95v11.2c0,2.52.88,14.05,4.28,14.05.44,0,.88.11,1.32.33.33.55.44,1.1.44,1.75,0,.77-.22,2.2-1.21,2.2h-28.31c-1.32,0-1.21-1.65-1.21-2.52,0-.55.22-.99.44-1.43.44-.22.88-.33,1.32-.33,3.84-1.76,4.28-10.42,4.28-14.05v-10.64c-5.16-9.88-10.1-20.08-15.8-29.63-1.43-2.41-3.73-6.47-6.47-7.57-2.85-1.1-5.71.33-5.71-3.51,0-.99.33-2.19,1.43-2.19h33.14c.77,0,.99,1.97.99,2.52,0,1.32-.11,2.41-1.75,2.41h-.22c-1.98-.77-3.29.22-3.29,2.19,0,6.26,11.08,24.91,14.27,30.84,3.84-8.67,7.46-17.67,12.07-25.9.55-.99.88-1.97.88-3.07,0-4.5-3.4-4.06-4.61-5.05-.44-.33-.44-1.54-.44-2.19,0-.44.33-1.76.99-1.76h15.25c.77,0,.99,1.76.99,2.3h-.01Z"/>
    <path class="cls-2" d="m277.4,35.39l3.23,23.46c.15,1.58-1.54,2.06-2.77,2.06-.77,0-1.54-.48-1.85-1.27-4.92-10.94-13.54-21.08-26.31-21.08h-10.92v45.3c12.77,0,22.61-.16,24.77-15.37.15-1.11,1.08-1.9,2.15-1.9,1.23,0,2.15.47,2.15,1.9,0,6.02-.61,12.05-.61,18.07s.61,12.05.61,18.07c0,1.27-.92,1.74-2,1.74-.92,0-2.15-.63-2.46-1.74-.46-1.9-.31-3.65-1.08-5.55-2.62-6.82-9.38-9.99-16.15-9.99h-7.38v25.4c0,3.01-.46,7.29.15,10.14,2.31,9.99,6.77,3.01,6.77,9.99,0,1.43-.31,2.54-1.85,2.54h-28.53c-2,0-2-1.43-2-3.17,0-5.71,4.92.32,6.77-9.35.77-4.12.15-9.83.31-14.11v-54.37c0-3.01.31-6.81-.15-9.83-1.54-9.51-6.92-4.44-6.92-9.83,0-.79,0-1.58.31-2.38.31-.63,1.08-.79,1.69-.79h59.3c1.23,0,2.62.63,2.77,2.06h0Z"/>
    <path class="cls-2" d="m445.39,208.38c-17.56,0-28.42-13.28-34.9-27.87-2.63-6.04-5.82-20.08-11.96-23.16-2.41-1.21-7.35-2.63-9.99-2.08,8.23-2.63,24.8-9.22,24.8-19.86,0-15.69-18-16.9-29.96-16.9h-30.07l-.55.55c-.22.22-.11.77-.11,1.1v.44c-.55,3.18,2.41.77,4.06,4.94,1.32,3.29,1.87,6.58,1.87,10.09v36.33c0,3.29-.55,12.84-4.28,14.05-.44.11-.88.11-1.32.33-.11.22-.44.88-.44,1.21,0,.77-.11,2.3.66,2.74h28.75c1.43,0,1.21-1.86,1.21-2.74,0-2.74-2.63.22-4.28-4.61-1.21-3.51-1.76-7.35-1.76-10.98,0-4.61.11-9.22.11-13.83l.33-.11c2.3.44,3.95,1.43,5.71,2.96,11.08,9.77,7.57,21.95,13.83,33.58,7.79,14.59,22.82,27.55,38.74,27.55,17.45,0,40.28-13.17,47.96-29.63-10.32,8.12-25.13,15.91-38.41,15.91h0Zm-68.15-53.99v-32.26h2.3c8.78,0,13.94,6.47,13.94,14.93,0,9.33-8.34,14.71-16.24,17.34h0Z"/>
    <path class="cls-2" d="m422.94,185.99c3.62-.77,4.28-11.08,4.28-14.05v-35.12c0-2.96-.66-13.17-4.28-14.05-.44-.11-.88-.11-1.32-.33-.33-.55-.44-1.21-.44-1.86s.11-1.76.77-2.09h28.75c1.1,0,1.1,1.32,1.1,2.09,0,3.95-2.63.11-4.28,5.27-1.1,3.51-1.65,7.24-1.65,10.98v35.12c0,3.73.55,7.46,1.65,10.98,1.65,5.27,4.28.99,4.28,5.71,0,.66-.22,1.65-1.1,1.65h-28.75c-.77-.33-.77-1.54-.77-2.19s.11-1.21.44-1.76c.44-.22.88-.22,1.32-.33v-.02Z"/>
    <path class="cls-2" d="m514.12,170.52l-3.4,18.33c-.22.99-1.21,1.43-2.09,1.43h-49.06c-1.43,0-1.43-.99-1.43-2.19,0-3.95,3.29.22,4.83-6.47.66-2.85.11-6.8.22-9.77v-38.41c0-1.87.22-4.17-.11-6.04-1.21-6.91-4.94-2.85-4.94-6.8,0-.55,0-1.1.22-1.65.22-.44.77-.55,1.21-.55h46.53c.88,0,1.87.44,1.98,1.43l2.19,16.24c.11.88-.88,1.54-1.65,1.54-.66,0-1.21-.44-1.54-1.1-3.62-7.57-9.77-14.48-18.88-14.48h-6.37v30.51c9.44,0,17.12.33,18.66-10.75.11-.77.77-1.21,1.54-1.21.88,0,1.54.22,1.54,1.21,0,4.17-.22,8.34-.22,12.51s.22,8.34.22,12.51c0,.88-.66,1.1-1.54,1.1-.77,0-1.43-.22-1.54-1.1-1.21-7.68-5.49-10.64-13.17-10.64h-5.49v30.51h6.48c8.45,0,16.46-5.49,20.52-12.51.77-1.32,1.43-2.74,2.09-4.06.22-.44.77-.88,1.21-.88.88,0,2.2,0,1.98,1.32v-.03Z"/>
    <path class="cls-2" d="m588.21,121.03c0,.77-.44,1.65-1.43,1.65h-.33c-3.4,2.3-5.93,5.93-5.93,10.21v56.08c0,1.21-1.43,1.32-2.3,1.32s-1.76-.55-2.41-1.21l-48.73-56.52v42.47c0,4.72,1.98,8.34,5.93,10.97,1.32-.33,1.87.99,1.87,2.09,0,.88-.11,2.19-1.32,2.19h-16.02c-1.21,0-1.32-1.32-1.32-2.19,0-.66.11-1.21.44-1.76.33-.22.66-.33.99-.33h.44c5.27-4.5,5.38-9.55,5.38-15.91v-33.36c0-5.38-.99-12.62-6.8-14.82-.88-.33-2.41-.88-2.41-1.98,0-1.21,1.65-1.54,2.52-1.54h21.95l38.19,43.13v-22.94c0-5.93-.33-12.07-5.49-15.91-1.1.22-1.76-.66-1.76-1.65,0-.88,0-2.63,1.21-2.63h16.13c1.32,0,1.21,1.76,1.21,2.63h-.01Z"/>
    <path class="cls-2" d="m621.76,118.39h-25.46c-1.43,0-1.43,1.1-1.43,2.2,0,4.17,3.4-.55,4.94,6.8.55,2.85.11,19.32.11,23.05,0,3.95.33,28.87-.22,31.17-1.75,7.13-4.83,2.3-4.83,6.47,0,1.21,0,2.19,1.43,2.19h25.35c21.4,0,38.96-13.72,38.96-35.99s-17.56-35.89-38.85-35.89h0Zm0,68.81h-3.18v-65.74h3.18c15.36,0,19.86,20.96,19.86,32.81s-4.5,32.92-19.86,32.92h0Z"/>
    <path class="cls-2" d="m711,143.96c-.77-2.41-1.21-4.83-2.3-7.24-3.84-8.78-12.4-15.91-22.39-15.91-4.28,0-9.77,1.76-9.77,6.91,0,13.61,43.46,18.11,43.46,41.15,0,16.46-17.89,22.83-31.72,22.83-10.32,0-26.01-4.72-26.01-17.45,0-5.49,2.85-10.32,8.89-10.32,4.72,0,9.11,3.51,9.11,8.45,0,4.17-3.73,7.02-3.73,9.99,0,5.16,9.11,6.14,12.73,6.14,6.69,0,18.66-2.63,18.66-11.3,0-13.72-42.03-17.89-42.03-39.18,0-13.39,10.75-20.41,23.16-20.41,3.62,0,7.35.44,10.75,1.76,1.76.66,4.5,1.87,6.37,1.87,3.84,0,2.09-5.49,4.5-5.49.55,0,1.32.11,1.43.88l2.41,27.33c.11.88-.99,1.32-1.65,1.32-.88,0-1.65-.55-1.87-1.32h0Z"/>
    <path class="cls-2" d="m346.5,119.72l3.23,23.46c.15,1.59-1.54,2.06-2.77,2.06-.77,0-1.54-.48-1.85-1.27-4.92-10.94-13.54-21.08-26.31-21.08h-10.92v45.3c12.77,0,22.61-.16,24.77-15.38.15-1.11,1.08-1.9,2.15-1.9,1.23,0,2.15.47,2.15,1.9,0,6.02-.61,12.05-.61,18.07s.61,12.05.61,18.07c0,1.27-.92,1.74-2,1.74-.92,0-2.15-.63-2.46-1.74-.46-1.9-.31-3.65-1.08-5.55-2.62-6.82-9.38-9.99-16.15-9.99h-7.38v25.4c0,3.01-.46,7.29.15,10.14,2.31,9.99,6.77,3.01,6.77,9.99,0,1.43-.31,2.54-1.85,2.54h-28.53c-2,0-2-1.43-2-3.17,0-5.71,4.92.32,6.77-9.35.77-4.12.15-9.83.31-14.11v-54.37c0-3.01.31-6.82-.15-9.83-1.54-9.51-6.92-4.44-6.92-9.83,0-.79,0-1.58.31-2.38.31-.63,1.08-.79,1.69-.79h59.3c1.23,0,2.62.63,2.77,2.06h0Z"/>
  </g>
  <g>
    <path class="cls-1" d="m20.49,110.18c8.06,3.54,15.74,7.71,22.88,12.48,4.84-6.71,10.33-13.07,16.4-19.02-4.1-3.47-8.42-6.76-12.93-9.82-2.93-1.99-4.55-5.27-4.34-8.77.13-2.1.92-4.08,2.28-5.72,6.5-7.81,13.77-15.21,21.67-22.04-3.69-10.77-9.16-23.71-15.48-32.58C41.9,11.97,28.51-3.58,14.9.74,1.29,5.06-1.51,29.46.65,46.52c2.15,16.96,5.16,36.28,19.84,63.66h0Z"/>
    <path class="cls-1" d="m110.66,122.38c1.45-1.1,2.96-2.17,4.55-3.15l.04-.02c-1.81-3.18-3.54-6.83-5.31-11.58-1.44-3.85-2.78-8.07-3.94-12.82-4,2.78-7.85,5.73-11.52,8.84,5.98,5.87,11.4,12.14,16.19,18.74h0Z"/>
    <path class="cls-3" d="m138.04,138.3h-.32c-7.9-.17-13.9-6.04-18.62-12.77-3.52,2.17-6.89,5.12-10.11,7.53-6.72-10.48-15.26-20.49-25.52-29.54,5.98-5.64,12.58-10.95,19.76-15.83,1.24-.84,1.5-2.46.53-3.63-1.31-1.58-2.67-3.14-4.06-4.69-.04-.04-.08-.08-.11-.13-.81-.91-1.64-1.81-2.47-2.71-.09-.1-.19-.2-.28-.3-.79-.84-1.59-1.68-2.4-2.51-.17-.17-.34-.34-.51-.52-.75-.76-1.51-1.52-2.27-2.28-.26-.26-.53-.52-.8-.77-.69-.67-1.39-1.34-2.09-2.01-.39-.36-.78-.72-1.17-1.08-.61-.56-1.21-1.13-1.83-1.68-.57-.51-1.15-1.02-1.73-1.53-.46-.41-.92-.82-1.39-1.22-1.07-.92-2.15-1.83-3.25-2.74-1.25-1.03-3.31-1.03-4.56,0-9.14,7.52-17.27,15.64-24.36,24.17-.36.44-.55.94-.58,1.44-.05.83.34,1.66,1.11,2.19,7.18,4.88,13.77,10.2,19.76,15.83-10.26,9.04-18.79,19.05-25.52,29.54-8.53-6.39-18.16-12.01-28.76-16.57-1.02-.44-2.21-.16-2.93.69-2.37,2.79-4.62,5.64-6.74,8.53-.07.1-.13.2-.19.3-.15.28-.24.59-.27.91-.02.15-.02.3,0,.45.02.34.11.67.26.98,0,.02,0,.03.02.05h0c10.54,20.69,21.08,41.38,31.63,62.07,24.42-12.44,53.32-12.44,77.75,0h0c9-17.66,17.99-35.31,26.99-52.96-1.59.5-3.24.79-4.94.79h-.02Z"/>
    <path class="cls-1" d="m168.67,72.65h0c-.27-3.3-.82-6.32-1.63-9.09-.2-.69-.42-1.37-.66-2.03-1.29-3.6-3.06-6.7-5.26-9.33-.62-.74-1.27-1.46-1.96-2.13-.04-.04-.09-.08-.14-.12-1.31-1.25-2.73-2.36-4.27-3.34-.53-.34-1.07-.66-1.63-.96-.85-.46-1.76-.93-2.73-1.39-.65-.31-1.31-.62-2-.92-.69-.31-1.4-.61-2.12-.91-.16-.07-.33-.13-.49-.2-.2-.08-.4-.17-.61-.25-5.68-2.3-12.1-4.41-17.23-5.88-2.85-.82-5.31-1.44-7.02-1.79-2.53-.51-5.96-1.42-9.7-1.74-.62-.05-1.25-.09-1.89-.11s-1.28-.01-1.92.02h-.09c-.56.03-1.12.07-1.67.14-.4.05-.79.11-1.19.18-.35.06-.7.15-1.05.23-.37.09-.74.19-1.1.3-.33.1-.65.19-.98.31-2.5.92-4.91,2.45-7.06,4.87h0c-2.94,3.33-5.54,9.9-7.7,17.72.3.26.61.51.91.77.33.29,1.82,1.6,1.82,1.6.48.42.95.84,1.42,1.26.5.45.99.91,1.49,1.36l1.64,1.52c.74.7,1.46,1.39,2.17,2.09l.83.81c.8.78,1.58,1.57,2.36,2.36l.53.54c.85.87,1.68,1.74,2.5,2.62l.23.24c-.29-4.04-.49-8.35-.53-13.02h0c5.74,25.53,12.21,43.55,15.52,50.16,3.31,6.61,10.83,22.03,20.98,22.24,10.15.22,18.9-8.48,23.97-18.2s7.34-26.78,6.26-39.95v.02Z"/>
  </g>
</svg>